<svg width="50" height="50" viewBox="0 0 50 50" fill="none" xmlns="http://www.w3.org/2000/svg">
<rect width="50" height="50" fill="#F8F8F8"/>
<path d="M29 13C30.8407 13 32.6566 13.4234 34.3075 14.2375C35.9583 15.0516 37.3997 16.2346 38.5202 17.6949C39.6408 19.1552 40.4103 20.8536 40.7694 22.6589C41.1285 24.4642 41.0675 26.3279 40.5911 28.1058C40.1147 29.8838 39.2357 31.5283 38.0221 32.9122C36.8085 34.296 35.2927 35.3822 33.5922 36.0866C31.8917 36.7909 30.0519 37.0947 28.2152 36.9743C26.3784 36.8539 24.594 36.3126 23 35.3923" stroke="#33363F" stroke-width="4" stroke-linecap="round"/>
<path d="M15 39V11" stroke="#33363F" stroke-width="4"/>
<path d="M21 11V20C21 21.6569 19.6569 23 18 23V23C16.3431 23 15 21.6569 15 20V11" stroke="#33363F" stroke-width="4"/>
<path d="M9 11V20C9 21.6569 10.3431 23 12 23V23C13.6569 23 15 21.6569 15 20V11" stroke="#33363F" stroke-width="4"/>
</svg>
